<svg xmlns="http://www.w3.org/2000/svg" viewBox="0 0 500 500"><g id="freepik--background-complete--inject-77"><polygon points="305.5 466.07 284.53 419.24 271.62 419.24 301.84 466.07 305.5 466.07" style="fill:#e0e0e0"></polygon><path d="M117.73,320.91c-2.66-13.43-10-17.09-20-21.74s-5.65-15.29-5.65-15.29H86.31s4.32,10.64-5.65,15.29-17.28,8.31-19.94,21.74S65,352.32,65,352.32h48.37S120.39,334.33,117.73,320.91Z" style="fill:#f5f5f5"></path><path d="M133.9,286.85H42.83l23-53H114Z" style="fill:#e0e0e0"></path><polygon points="38.23 420.03 298.69 420.03 324.24 420.03 324.24 351.54 38.23 351.54 38.23 420.03" style="fill:#ebebeb"></polygon><path d="M42.31,415.09s0-.36,0-1.06,0-1.72,0-3.06c0-2.69,0-6.64.06-11.71,0-10.15.07-24.8.13-42.91l-.24.24,137.5.09h0l-.33-.33c0,20.61,0,40.47,0,58.74l.32-.31-98.61.15L52.63,415l-7.65,0H43l-.68,0s.21,0,.65,0l1.94,0,7.59,0,28.51.09,98.82.15h.32v-.32c0-18.27,0-38.13,0-58.74V356h-.34l-137.5.09h-.24v.24c.06,18.17.1,32.87.13,43.06,0,5,0,9,.06,11.66,0,1.31,0,2.31,0,3S42.31,415.09,42.31,415.09Z" style="fill:#e0e0e0"></path><path d="M106.09,385.54a4.33,4.33,0,1,0,4.32-4.33A4.32,4.32,0,0,0,106.09,385.54Z" style="fill:#e0e0e0"></path><path d="M182.1,415.09s0-.36,0-1.06,0-1.72,0-3.06c0-2.69,0-6.64.06-11.71,0-10.15.07-24.8.12-42.91l-.23.24,137.5.09h0l-.33-.33c0,20.61,0,40.47,0,58.74l.32-.31-98.61.15-28.58.09-7.65,0h-2l-.68,0s.21,0,.64,0l1.95,0,7.59,0,28.51.09,98.82.15h.32v-.32c0-18.27,0-38.13,0-58.74V356h-.34l-137.5.09h-.24v.24c0,18.17.1,32.87.13,43.06,0,5,0,9,.06,11.66,0,1.31,0,2.31,0,3S182.1,415.09,182.1,415.09Z" style="fill:#e0e0e0"></path><path d="M245.87,385.54a4.33,4.33,0,1,0,4.33-4.33A4.33,4.33,0,0,0,245.87,385.54Z" style="fill:#e0e0e0"></path><polygon points="78.59 420.03 51.05 466.38 47.88 466.38 68.6 420.03 78.59 420.03" style="fill:#e0e0e0"></polygon><rect x="54.53" y="39.6" width="74.11" height="77.26" style="fill:#e0e0e0"></rect><rect x="49.51" y="39.6" width="74.11" height="77.26" style="fill:#ebebeb"></rect><rect x="59.47" y="49.99" width="54.19" height="56.49" style="fill:#fff"></rect><path d="M59.47,106.85a9.7,9.7,0,0,1-1.35,1.53c-.87.91-2.09,2.15-3.46,3.49s-2.61,2.54-3.53,3.4a10.22,10.22,0,0,1-1.55,1.32,10.27,10.27,0,0,1,1.35-1.53c.87-.91,2.09-2.15,3.46-3.49s2.62-2.55,3.54-3.4A9.76,9.76,0,0,1,59.47,106.85Z" style="fill:#e0e0e0"></path><path d="M113.66,106.71a10.27,10.27,0,0,1,1.53,1.35c.91.87,2.14,2.09,3.49,3.46s2.54,2.61,3.39,3.53a10,10,0,0,1,1.33,1.55,10.27,10.27,0,0,1-1.53-1.35c-.91-.87-2.15-2.09-3.49-3.46s-2.55-2.62-3.4-3.54A9.11,9.11,0,0,1,113.66,106.71Z" style="fill:#e0e0e0"></path><path d="M113.51,50.14a9.46,9.46,0,0,1,1.35-1.54c.87-.91,2.09-2.14,3.46-3.48s2.61-2.55,3.53-3.4a10.22,10.22,0,0,1,1.55-1.32,10.27,10.27,0,0,1-1.35,1.53c-.87.91-2.09,2.14-3.46,3.49S116,48,115.05,48.82A10.51,10.51,0,0,1,113.51,50.14Z" style="fill:#e0e0e0"></path><path d="M59.32,50.28a11,11,0,0,1-1.53-1.36c-.91-.87-2.15-2.09-3.49-3.45s-2.54-2.61-3.4-3.53a10.22,10.22,0,0,1-1.32-1.55,10.27,10.27,0,0,1,1.53,1.35c.91.87,2.15,2.09,3.49,3.45s2.55,2.62,3.4,3.54A9.52,9.52,0,0,1,59.32,50.28Z" style="fill:#e0e0e0"></path><path d="M113.51,106.47s0-.09,0-.27,0-.45,0-.79c0-.7,0-1.72,0-3,0-2.67,0-6.56,0-11.51,0-9.89,0-24-.09-40.87l.18.17-54,0h0l.2-.2c0,20.73,0,40.13,0,56.48l-.17-.17,39.14.09,11,0,2.9,0h0l-2.87,0-11,0-39.25.09h-.18v-.18c0-16.35,0-35.75,0-56.48v-.21h.2l54,0h.18V50c0,16.93-.07,31.06-.09,41,0,4.93,0,8.81,0,11.47,0,1.31,0,2.32,0,3v.77A2.28,2.28,0,0,1,113.51,106.47Z" style="fill:#e0e0e0"></path><path d="M73.77,73.58s-1.16,14,14,14C87.76,80.11,81.6,74.22,73.77,73.58Z" style="fill:#ebebeb"></path><path d="M101.49,73.6s-14-1.17-14,14C95,87.58,100.85,81.42,101.49,73.6Z" style="fill:#ebebeb"></path><path d="M87.08,65.94s-11.42,10.26.63,21.63C93.31,81.63,92.84,72.32,87.08,65.94Z" style="fill:#e0e0e0"></path><rect x="374.76" y="42.3" width="92.16" height="152.55" style="fill:#e0e0e0"></rect><rect x="371.7" y="42.3" width="92.16" height="152.55" style="fill:#ebebeb"></rect><rect x="375.62" y="45.39" width="84.31" height="146.36" style="fill:#fff"></rect><rect x="391.67" y="64.41" width="51.84" height="108.33" style="fill:#ebebeb"></rect><path d="M391.67,134.41c-.12-10.12,9-20,19-21.41,4.78-.68,9.85.27,14.32-1.56,8-3.27,10.5-13.86,18.52-17l.37,78.3H391.67Z" style="fill:#e0e0e0"></path></g><g id="freepik--Floor--inject-77"><path d="M457.25,466.21c0,.15-93.24.26-208.24.26s-208.26-.11-208.26-.26S134,466,249,466,457.25,466.07,457.25,466.21Z" style="fill:#263238"></path></g><g id="freepik--Plant--inject-77"><path d="M452.33,242.18c-11.68,6-20.63,16.46-27.07,27.92s-10.58,24-14.69,36.54L407,371.05c13.59-23.11,24.49-50.28,27.43-76.92l-9-.81c6.07-.92,11.15-5.31,14.39-10.52s4.9-11.21,6.53-17.12l-11,1.63A40.87,40.87,0,0,0,452.33,242.18Z" style="fill:#455a64"></path><g style="opacity:0.30000000000000004"><path d="M452.33,242.18c-11.68,6-20.63,16.46-27.07,27.92s-10.58,24-14.69,36.54L407,371.05c13.59-23.11,24.49-50.28,27.43-76.92l-9-.81c6.07-.92,11.15-5.31,14.39-10.52s4.9-11.21,6.53-17.12l-11,1.63A40.87,40.87,0,0,0,452.33,242.18Z"></path></g><path d="M405,386.14s-29.48-35.29-29.14-69h11.91s-12.94-8.51-11.92-13.27,1.37-22.8,1.37-22.8l10.89,2.72s-8.17-4.08-9.19-10.55,2.38-36.41,2.38-36.41,13.27,14,17.36,28.24,14.8,31,11.65,74.53S405,386.14,405,386.14Z" style="fill:#455a64"></path><path d="M419.91,389.47s31.94-21.28,39-48.44l-9.58-2.6s12.27-4,12.48-8.07,3.9-18.63,3.9-18.63l-9.35-.19s7.46-1.5,9.69-6.47,6.05-29.8,6.05-29.8-13.72,8.32-20.13,18.91-18.68,21.66-25.68,57.37S419.91,389.47,419.91,389.47Z" style="fill:#455a64"></path><path d="M389.32,267.62s0,.12.1.37.15.62.26,1.08c.21,1,.53,2.39.93,4.19s.88,4.05,1.39,6.64,1.14,5.55,1.74,8.83c1.26,6.54,2.59,14.36,4,23.07s2.66,18.3,3.84,28.4,2,19.76,2.74,28.54,1.14,16.71,1.41,23.37c.16,3.33.24,6.34.32,9s.14,4.93.16,6.79,0,3.28.05,4.29v1.12a2.79,2.79,0,0,1,0,.38,2.28,2.28,0,0,1,0-.38c0-.28,0-.65-.05-1.12,0-1-.08-2.44-.14-4.28s-.13-4.14-.25-6.79-.21-5.65-.4-9c-.31-6.66-.84-14.57-1.52-23.35s-1.63-18.42-2.78-28.52-2.49-19.68-3.79-28.39-2.64-16.53-3.86-23.07c-.57-3.29-1.15-6.24-1.65-8.84s-.93-4.83-1.31-6.66l-.84-4.21c-.08-.46-.15-.82-.2-1.09A1.37,1.37,0,0,1,389.32,267.62Z" style="fill:#263238"></path><path d="M400.87,407.75s-27-30.61-35.36-49.12l6.33-2.7c-4.59.75-9.29-1.22-12.84-4.21s-6.17-6.93-8.72-10.8l8.33-1.41a31,31,0,0,1-18.21-14.1c9.83,1.61,18.73,7,26.06,13.76a130.18,130.18,0,0,1,15.79,18.3,62.76,62.76,0,0,1,6.13,10.08C392.91,376.92,400.89,396.51,400.87,407.75Z" style="fill:#455a64"></path><path d="M459.37,293.09a1.15,1.15,0,0,1-.12.31l-.42.89-1.64,3.4c-1.45,2.94-3.5,7.21-6,12.52s-5.36,11.66-8.43,18.76-6.3,15-9.53,23.32-6.11,16.35-8.64,23.67-4.66,14-6.39,19.55-3.09,10.14-4,13.29c-.46,1.54-.82,2.76-1.07,3.62l-.29.93a1.72,1.72,0,0,1-.12.32,1.92,1.92,0,0,1,.07-.33l.24-.95c.23-.87.55-2.09,1-3.65.85-3.16,2.15-7.72,3.84-13.33s3.81-12.27,6.29-19.61,5.38-15.35,8.6-23.7,6.5-16.21,9.58-23.32,6-13.45,8.53-18.73,4.63-9.54,6.13-12.45l1.74-3.36.46-.86Z" style="fill:#263238"></path><path d="M403.16,420.87a2.42,2.42,0,0,1-.13-.56c-.07-.43-.15-1-.26-1.63s-.23-1.57-.42-2.57-.35-2.14-.62-3.38c-.49-2.51-1.18-5.47-2.06-8.73s-2-6.78-3.4-10.43-2.88-7-4.34-10.07-2.93-5.71-4.22-7.91c-.62-1.11-1.25-2.08-1.77-2.95s-1-1.61-1.38-2.21l-.88-1.39a2.63,2.63,0,0,1-.28-.5s.14.14.36.44.58.8,1,1.34.92,1.3,1.46,2.16,1.2,1.82,1.84,2.93c1.34,2.18,2.82,4.85,4.34,7.88s3,6.44,4.4,10.1,2.48,7.22,3.37,10.49,1.52,6.25,2,8.78c.25,1.25.4,2.4.55,3.41s.26,1.87.33,2.58.12,1.21.17,1.64A2.32,2.32,0,0,1,403.16,420.87Z" style="fill:#263238"></path><rect x="379.71" y="413.67" width="59.05" height="12.05" style="fill:#8D88E5"></rect><polygon points="385.34 425.71 391.72 466.23 427.41 466.23 433.36 425.71 385.34 425.71" style="fill:#8D88E5"></polygon><path d="M435.14,425.71c0,.15-11.17.26-24.95.26s-24.95-.11-24.95-.26,11.17-.26,24.95-.26S435.14,425.57,435.14,425.71Z" style="fill:#263238"></path></g><g id="freepik--Device--inject-77"><path d="M326.66,466.09,193.73,466c-16,0-28.94-13.64-28.94-30.44l.07-350.22c0-16.81,13-30.43,29-30.42L326.76,55c16,0,28.94,13.64,28.94,30.44l-.07,350.21C355.63,452.48,342.66,466.1,326.66,466.09Z" style="fill:#263238"></path><path d="M326.62,67.4l-25.77,0c-3.46,0-6.26,3.08-6.26,6.87v4.92c0,3.79-2.81,6.87-6.26,6.87l-50.24,0c-3.45,0-6.26-3.09-6.25-6.88V74.21c0-3.79-2.81-6.87-6.26-6.87H194c-11.21,0-20.29,9.53-20.29,21.3l-.07,341.84c0,11.77,9.07,21.31,20.27,21.32l132.66.08c11.2,0,20.29-9.53,20.29-21.31l.07-341.84C346.89,77,337.82,67.4,326.62,67.4Z" style="fill:#fff"></path><path d="M201.69,424.82v10a1.1,1.1,0,0,1-1.69.93l-7.89-5a1.11,1.11,0,0,1,0-1.87l7.89-5A1.1,1.1,0,0,1,201.69,424.82Z" style="fill:#e0e0e0"></path><path d="M266.49,429.74a6.91,6.91,0,1,1-6.91-6.93A6.92,6.92,0,0,1,266.49,429.74Z" style="fill:#e0e0e0"></path><rect x="316.14" y="423.71" width="12.76" height="12.79" rx="1.87" style="fill:#e0e0e0"></rect><path d="M335.53,107.46a1.72,1.72,0,1,1-1.72-1.72A1.72,1.72,0,0,1,335.53,107.46Z" style="fill:#263238"></path><circle cx="333.81" cy="112.16" r="1.72" style="fill:#263238"></circle><circle cx="333.81" cy="116.86" r="1.72" style="fill:#263238"></circle><path d="M345.71,127.09c0,.14-38.67.25-86.36.25s-86.36-.11-86.36-.25,38.66-.25,86.36-.25S345.71,127,345.71,127.09Z" style="fill:#e0e0e0"></path><path d="M189.58,109.53H187v-1.21h6.57v1.21H191v6.53h-1.44Z" style="fill:#263238"></path><path d="M193.44,113.11a3.15,3.15,0,1,1,3.14,3A3,3,0,0,1,193.44,113.11Zm4.9,0a1.75,1.75,0,1,0-1.76,1.84A1.72,1.72,0,0,0,198.34,113.11Z" style="fill:#263238"></path><path d="M207.34,113.11a2.88,2.88,0,0,1-3,3,2.43,2.43,0,0,1-1.89-.8v2.87h-1.38v-8.06h1.31v.78a2.43,2.43,0,0,1,2-.84A2.87,2.87,0,0,1,207.34,113.11Zm-1.41,0a1.75,1.75,0,1,0-1.75,1.84A1.72,1.72,0,0,0,205.93,113.11Z" style="fill:#263238"></path><path d="M211.78,112.69v-4.37h1.43v4.31c0,1.59.72,2.28,2,2.28s2-.69,2-2.28v-4.31h1.42v4.37a3.39,3.39,0,1,1-6.78,0Z" style="fill:#263238"></path><path d="M226.71,113.11a2.88,2.88,0,0,1-3,3,2.44,2.44,0,0,1-1.89-.8v2.87h-1.38v-8.06h1.32v.78a2.41,2.41,0,0,1,2-.84A2.87,2.87,0,0,1,226.71,113.11Zm-1.4,0a1.76,1.76,0,1,0-1.75,1.84A1.72,1.72,0,0,0,225.31,113.11Z" style="fill:#263238"></path><path d="M230.66,112.19a4.2,4.2,0,0,1,7.22-2.69l-.93.88a2.72,2.72,0,0,0-2.07-.91,2.72,2.72,0,1,0,0,5.44A2.7,2.7,0,0,0,237,114l.93.89a4.2,4.2,0,0,1-7.22-2.69Z" style="fill:#263238"></path><path d="M242.55,110.09v1.31l-.32,0a1.62,1.62,0,0,0-1.72,1.83v2.86h-1.38v-5.91h1.31V111A2.33,2.33,0,0,1,242.55,110.09Z" style="fill:#263238"></path><path d="M249.2,113.55h-4.64a1.8,1.8,0,0,0,1.91,1.42,2.1,2.1,0,0,0,1.61-.65l.74.86a3.32,3.32,0,0,1-5.64-2.07,2.93,2.93,0,0,1,3-3,2.88,2.88,0,0,1,3,3C249.22,113.25,249.21,113.42,249.2,113.55Zm-4.65-.92h3.35a1.61,1.61,0,0,0-1.67-1.44A1.63,1.63,0,0,0,244.55,112.63Z" style="fill:#263238"></path><path d="M256.33,107.85v8.21H255v-.76a2.46,2.46,0,0,1-2,.84,3,3,0,0,1,0-6,2.41,2.41,0,0,1,1.9.79v-3ZM255,113.11a1.76,1.76,0,1,0-1.76,1.84A1.73,1.73,0,0,0,255,113.11Z" style="fill:#263238"></path><path d="M258,108.35a.85.85,0,0,1,.89-.83.82.82,0,0,1,.88.8.89.89,0,0,1-1.77,0Zm.19,1.8h1.38v5.91h-1.38Z" style="fill:#263238"></path><path d="M264.9,115.74a2.14,2.14,0,0,1-1.33.4,1.82,1.82,0,0,1-2-2V111.3h-1v-1.1h1v-1.35h1.39v1.35h1.58v1.1h-1.58v2.81c0,.58.28.89.82.89a1.28,1.28,0,0,0,.77-.24Z" style="fill:#263238"></path><path d="M265.36,115.47l.54-1A3.86,3.86,0,0,0,268,115c.88,0,1.24-.24,1.24-.65,0-1.13-3.65-.07-3.65-2.43,0-1.11,1-1.84,2.6-1.84a4.68,4.68,0,0,1,2.21.51l-.53,1.05a3.25,3.25,0,0,0-1.69-.45c-.84,0-1.24.28-1.24.67,0,1.19,3.65.13,3.65,2.44,0,1.11-1,1.83-2.68,1.83A4.69,4.69,0,0,1,265.36,115.47Z" style="fill:#263238"></path><path d="M198,152.78a3.52,3.52,0,1,1,3.51-3.51A3.52,3.52,0,0,1,198,152.78Zm0-6a2.52,2.52,0,1,0,2.51,2.52A2.52,2.52,0,0,0,198,146.75Z" style="fill:#263238"></path><path d="M195.94,155.15a3.52,3.52,0,0,1-1.24-6.81l.36.94a2.52,2.52,0,1,0,3.36,2.82l1,.18A3.53,3.53,0,0,1,195.94,155.15Z" style="fill:#263238"></path><path d="M193.93,157.2a3.51,3.51,0,0,1-1.24-6.8l.35.93a2.55,2.55,0,0,0-1.63,2.36,2.52,2.52,0,0,0,5,.46l1,.19A3.51,3.51,0,0,1,193.93,157.2Z" style="fill:#263238"></path><path d="M207.34,151.43a3.49,3.49,0,0,1,6-2.24l-.77.73a2.26,2.26,0,0,0-1.72-.76,2.27,2.27,0,1,0,0,4.53,2.26,2.26,0,0,0,1.72-.76l.77.73a3.48,3.48,0,0,1-6-2.23Z" style="fill:#263238"></path><path d="M220.22,148.21v6.44H219v-2.76h-3.33v2.76H214.5v-6.44h1.19v2.66H219v-2.66Z" style="fill:#263238"></path><path d="M221.49,151.43a3.47,3.47,0,1,1,3.47,3.31A3.3,3.3,0,0,1,221.49,151.43Zm5.74,0a2.27,2.27,0,1,0-2.27,2.26A2.2,2.2,0,0,0,227.23,151.43Z" style="fill:#263238"></path><path d="M229.25,151.43a3.47,3.47,0,1,1,3.47,3.31A3.29,3.29,0,0,1,229.25,151.43Zm5.73,0a2.27,2.27,0,1,0-2.26,2.26A2.2,2.2,0,0,0,235,151.43Z" style="fill:#263238"></path><path d="M236.92,154l.41-.93a3.63,3.63,0,0,0,2.13.71c1,0,1.42-.36,1.42-.84,0-1.39-3.82-.48-3.82-2.87,0-1,.82-1.92,2.59-1.92a4,4,0,0,1,2.14.57l-.37.93a3.51,3.51,0,0,0-1.78-.51c-1,0-1.4.39-1.4.87,0,1.37,3.82.48,3.82,2.85,0,1-.84,1.91-2.6,1.91A4.13,4.13,0,0,1,236.92,154Z" style="fill:#263238"></path><path d="M248.08,153.65v1h-4.83v-6.44H248v1h-3.5v1.68h3.11v1h-3.11v1.78Z" style="fill:#263238"></path><path d="M256.14,153.16h-3.22l-.64,1.49h-1.23l2.9-6.44h1.18l2.9,6.44h-1.25Zm-.4-.94-1.21-2.82-1.21,2.82Z" style="fill:#263238"></path><path d="M264.77,154.65v-4.27l-2.12,3.53h-.54L260,150.43v4.22h-1.14v-6.44h1l2.56,4.27,2.51-4.27h1v6.44Z" style="fill:#263238"></path><path d="M267.19,151.43a3.47,3.47,0,1,1,3.47,3.31A3.29,3.29,0,0,1,267.19,151.43Zm5.73,0a2.26,2.26,0,1,0-2.26,2.26A2.19,2.19,0,0,0,272.92,151.43Z" style="fill:#263238"></path><path d="M275.35,151.84v-3.63h1.2v3.59c0,1.32.59,1.89,1.63,1.89s1.63-.57,1.63-1.89v-3.59H281v3.63a2.82,2.82,0,1,1-5.64,0Z" style="fill:#263238"></path><path d="M288.39,148.21v6.44h-1l-3.55-4.36v4.36h-1.19v-6.44h1l3.56,4.36v-4.36Z" style="fill:#263238"></path><path d="M291.43,149.22H289.3v-1h5.46v1h-2.13v5.43h-1.2Z" style="fill:#263238"></path><path d="M298.12,152.13a7.92,7.92,0,0,1,1.12-4.31h1.1a9,9,0,0,0,0,8.61h-1.1A7.93,7.93,0,0,1,298.12,152.13Z" style="fill:#263238"></path><path d="M307,152.93l.77.73a3.24,3.24,0,0,1-2.55,1.08,3.3,3.3,0,0,1-3.31-2.36h-1.05v-.64h.93c0-.1,0-.2,0-.31s0-.21,0-.31h-.93v-.65h1.05a3.29,3.29,0,0,1,3.31-2.35,3.23,3.23,0,0,1,2.55,1.07l-.77.73a2.26,2.26,0,0,0-1.72-.76,2.22,2.22,0,0,0-2.11,1.31h2.64v.65H303a2.41,2.41,0,0,0,0,.62h2.82v.64h-2.64a2.2,2.2,0,0,0,2.11,1.31A2.26,2.26,0,0,0,307,152.93Z" style="fill:#263238"></path><path d="M308.23,156.43a9,9,0,0,0,0-8.61h1.09a8.77,8.77,0,0,1,0,8.61Z" style="fill:#263238"></path><rect x="240.75" y="168.25" width="41.7" height="39.98" rx="4.45" style="fill:#8D88E5"></rect><path d="M260.29,191.33v1.87h-8.75v-1.48l4.72-4.47c1.15-1.1,1.35-1.8,1.35-2.46,0-1.09-.74-1.71-2.2-1.71a3.37,3.37,0,0,0-2.78,1.23l-1.54-1.18a5.47,5.47,0,0,1,4.51-2c2.57,0,4.23,1.31,4.23,3.41,0,1.15-.32,2.2-2,3.75l-3.17,3Z" style="fill:#fff"></path><path d="M261.51,187.26c0-3.89,2.14-6.1,4.95-6.1s5,2.21,5,6.1-2.14,6.11-5,6.11S261.51,191.16,261.51,187.26Zm7.7,0c0-2.86-1.12-4.18-2.75-4.18s-2.73,1.32-2.73,4.18,1.12,4.19,2.73,4.19S269.21,190.13,269.21,187.26Z" style="fill:#fff"></path><path d="M211.57,181.33V193.2h-2.2v-10h-2.51v-1.85Z" style="fill:#263238"></path><path d="M213.93,187.27c0-3.9,2.13-6.11,4.95-6.11s5,2.21,5,6.11-2.13,6.1-5,6.1S213.93,191.16,213.93,187.27Zm7.69,0c0-2.87-1.12-4.19-2.74-4.19s-2.73,1.32-2.73,4.19,1.12,4.18,2.73,4.18S221.62,190.13,221.62,187.27Z" style="fill:#263238"></path><path d="M232.06,208.73H199.25a5,5,0,0,1-4.95-4.95V172.7a5,5,0,0,1,4.95-4.95h32.81A5,5,0,0,1,237,172.7v31.08A5,5,0,0,1,232.06,208.73Zm-32.81-40a4,4,0,0,0-3.95,3.95v31.08a4,4,0,0,0,3.95,3.95h32.81a4,4,0,0,0,3.95-3.95V172.7a4,4,0,0,0-3.95-3.95Z" style="fill:#e0e0e0"></path><path d="M324,208.73h-32.8a5,5,0,0,1-4.95-4.95V172.7a5,5,0,0,1,4.95-4.95H324a5,5,0,0,1,4.95,4.95v31.08A5,5,0,0,1,324,208.73Zm-32.8-40a4,4,0,0,0-3.95,3.95v31.08a4,4,0,0,0,3.95,3.95H324a4,4,0,0,0,3.95-3.95V172.7a4,4,0,0,0-3.95-3.95Z" style="fill:#e0e0e0"></path><path d="M306.27,189.55c0,2.09-1.51,3.82-4.69,3.82a7.38,7.38,0,0,1-4.46-1.38l.93-1.71a5.63,5.63,0,0,0,3.49,1.17c1.58,0,2.51-.69,2.51-1.81s-.73-1.85-3.19-1.85H298l.61-6.46h7v1.85h-5.1l-.26,2.75h1.14C304.87,185.93,306.27,187.45,306.27,189.55Z" style="fill:#263238"></path><path d="M307.54,187.26c0-3.89,2.14-6.1,4.95-6.1s5,2.21,5,6.1-2.14,6.11-5,6.11S307.54,191.16,307.54,187.26Zm7.7,0c0-2.86-1.12-4.18-2.75-4.18s-2.73,1.32-2.73,4.18,1.12,4.19,2.73,4.19S315.24,190.13,315.24,187.26Z" style="fill:#263238"></path><path d="M278,255.35H245.2a5,5,0,0,1-4.95-4.95V219.31a5,5,0,0,1,4.95-4.94H278a5,5,0,0,1,4.95,4.94V250.4A5,5,0,0,1,278,255.35Zm-32.8-40a4,4,0,0,0-3.95,3.94V250.4a4,4,0,0,0,3.95,3.95H278A4,4,0,0,0,282,250.4V219.31a4,4,0,0,0-3.95-3.94Z" style="fill:#e0e0e0"></path><path d="M254.63,238v1.86h-8.75v-1.47l4.72-4.48c1.15-1.1,1.35-1.79,1.35-2.46,0-1.08-.74-1.71-2.2-1.71a3.35,3.35,0,0,0-2.78,1.24l-1.54-1.19a5.49,5.49,0,0,1,4.51-2c2.57,0,4.23,1.3,4.23,3.4,0,1.16-.32,2.21-2,3.75L249,238Z" style="fill:#263238"></path><path d="M255.85,233.88c0-3.9,2.13-6.1,5-6.1s5,2.2,5,6.1-2.14,6.1-5,6.1S255.85,237.78,255.85,233.88Zm7.7,0c0-2.86-1.12-4.19-2.75-4.19s-2.73,1.33-2.73,4.19,1.12,4.19,2.73,4.19S263.55,236.74,263.55,233.88Z" style="fill:#263238"></path><path d="M267.25,233.88c0-3.9,2.14-6.1,4.95-6.1s5,2.2,5,6.1-2.13,6.1-5,6.1S267.25,237.78,267.25,233.88Zm7.7,0c0-2.86-1.12-4.19-2.75-4.19s-2.72,1.33-2.72,4.19,1.11,4.19,2.72,4.19S275,236.74,275,233.88Z" style="fill:#263238"></path><path d="M205.87,228v11.86h-2.21v-10h-2.51V228Z" style="fill:#263238"></path><path d="M208.22,233.88c0-3.9,2.14-6.1,4.95-6.1s5,2.2,5,6.1-2.14,6.1-5,6.1S208.22,237.78,208.22,233.88Zm7.7,0c0-2.86-1.12-4.19-2.75-4.19s-2.73,1.33-2.73,4.19,1.12,4.19,2.73,4.19S215.92,236.74,215.92,233.88Z" style="fill:#263238"></path><path d="M219.63,233.88c0-3.9,2.13-6.1,5-6.1s5,2.2,5,6.1-2.13,6.1-5,6.1S219.63,237.78,219.63,233.88Zm7.69,0c0-2.86-1.12-4.19-2.74-4.19s-2.73,1.33-2.73,4.19,1.12,4.19,2.73,4.19S227.32,236.74,227.32,233.88Z" style="fill:#263238"></path><path d="M232.06,255.35H199.25a5,5,0,0,1-4.95-4.95V219.31a5,5,0,0,1,4.95-4.94h32.81a5,5,0,0,1,4.95,4.94V250.4A5,5,0,0,1,232.06,255.35Zm-32.81-40a4,4,0,0,0-3.95,3.94V250.4a4,4,0,0,0,3.95,3.95h32.81A4,4,0,0,0,236,250.4V219.31a4,4,0,0,0-3.95-3.94Z" style="fill:#e0e0e0"></path><path d="M324,255.35h-32.8a5,5,0,0,1-4.95-4.95V219.31a5,5,0,0,1,4.95-4.94H324a5,5,0,0,1,4.95,4.94V250.4A5,5,0,0,1,324,255.35Zm-32.8-40a4,4,0,0,0-3.95,3.94V250.4a4,4,0,0,0,3.95,3.95H324a4,4,0,0,0,3.95-3.95V219.31a4,4,0,0,0-3.95-3.94Z" style="fill:#e0e0e0"></path><path d="M300.71,236.17c0,2.08-1.51,3.81-4.7,3.81a7.43,7.43,0,0,1-4.45-1.37l.93-1.71a5.61,5.61,0,0,0,3.49,1.17c1.58,0,2.51-.7,2.51-1.82s-.73-1.84-3.19-1.84h-2.86l.61-6.46h7v1.84h-5.11l-.25,2.75h1.13C299.3,232.54,300.71,234.07,300.71,236.17Z" style="fill:#263238"></path><path d="M302,233.88c0-3.9,2.13-6.1,4.95-6.1s5,2.2,5,6.1-2.14,6.1-5,6.1S302,237.78,302,233.88Zm7.7,0c0-2.86-1.12-4.19-2.75-4.19s-2.73,1.33-2.73,4.19,1.12,4.19,2.73,4.19S309.68,236.74,309.68,233.88Z" style="fill:#263238"></path><path d="M313.38,233.88c0-3.9,2.14-6.1,4.95-6.1s5,2.2,5,6.1-2.14,6.1-5,6.1S313.38,237.78,313.38,233.88Zm7.7,0c0-2.86-1.12-4.19-2.75-4.19s-2.73,1.33-2.73,4.19,1.12,4.19,2.73,4.19S321.08,236.74,321.08,233.88Z" style="fill:#263238"></path><path d="M191.26,287.41l.41-.93a3.56,3.56,0,0,0,2.13.71c1,0,1.42-.36,1.42-.84,0-1.38-3.82-.47-3.82-2.87,0-1,.82-1.92,2.59-1.92a4,4,0,0,1,2.14.57l-.37.93a3.61,3.61,0,0,0-1.78-.51c-1,0-1.4.39-1.4.88,0,1.37,3.82.48,3.82,2.84,0,1-.84,1.91-2.6,1.91A4.13,4.13,0,0,1,191.26,287.41Z" style="fill:#263238"></path><path d="M202.42,287.09v1h-4.83v-6.44h4.7v1h-3.5v1.67h3.11v1h-3.11v1.78Z" style="fill:#263238"></path><path d="M203.76,281.65H205v5.43h3.36v1h-4.56Z" style="fill:#263238"></path><path d="M214.11,287.09v1h-4.83v-6.44H214v1h-3.51v1.67h3.11v1h-3.11v1.78Z" style="fill:#263238"></path><path d="M215,284.87a3.48,3.48,0,0,1,6-2.23l-.78.72a2.25,2.25,0,0,0-1.72-.75,2.27,2.27,0,1,0,1.72,3.76l.78.74a3.49,3.49,0,0,1-6-2.24Z" style="fill:#263238"></path><path d="M223.35,282.66h-2.14v-1h5.47v1h-2.14v5.43h-1.19Z" style="fill:#263238"></path><path d="M235.51,283.94c0,1.42-1,2.29-2.74,2.29h-1.45v1.86h-1.2v-6.44h2.65C234.47,281.65,235.51,282.52,235.51,283.94Zm-1.2,0c0-.81-.54-1.28-1.59-1.28h-1.4v2.56h1.4C233.77,285.22,234.31,284.75,234.31,283.94Z" style="fill:#263238"></path><path d="M240.57,286.6h-3.22l-.64,1.49h-1.23l2.9-6.44h1.18l2.91,6.44h-1.26Zm-.4-.94L239,282.85l-1.21,2.81Z" style="fill:#263238"></path><path d="M245.68,285.82v2.27h-1.2v-2.25L242,281.65h1.28l1.89,3.14,1.9-3.14h1.18Z" style="fill:#263238"></path><path d="M254.81,288.09v-4.27l-2.11,3.54h-.54L250,283.88v4.21H248.9v-6.44h1l2.56,4.27,2.51-4.27h1v6.44Z" style="fill:#263238"></path><path d="M262.52,287.09v1h-4.83v-6.44h4.7v1h-3.5v1.67H262v1h-3.11v1.78Z" style="fill:#263238"></path><path d="M269.58,281.65v6.44h-1l-3.55-4.36v4.36h-1.19v-6.44h1L268.4,286v-4.36Z" style="fill:#263238"></path><path d="M272.62,282.66h-2.13v-1H276v1h-2.13v5.43h-1.2Z" style="fill:#263238"></path><path d="M285.32,288.09v-4.27l-2.12,3.54h-.53l-2.12-3.48v4.21H279.4v-6.44h1l2.55,4.27,2.52-4.27h1v6.44Z" style="fill:#263238"></path><path d="M293,287.09v1h-4.84v-6.44h4.71v1h-3.51v1.67h3.11v1h-3.11v1.78Z" style="fill:#263238"></path><path d="M295.67,282.66h-2.13v-1H299v1h-2.13v5.43h-1.2Z" style="fill:#263238"></path><path d="M305.63,281.65v6.44h-1.2v-2.76H301.1v2.76h-1.19v-6.44h1.19v2.66h3.33v-2.66Z" style="fill:#263238"></path><path d="M306.9,284.87a3.47,3.47,0,1,1,3.47,3.31A3.3,3.3,0,0,1,306.9,284.87Zm5.74,0a2.27,2.27,0,1,0-2.27,2.27A2.2,2.2,0,0,0,312.64,284.87Z" style="fill:#263238"></path><path d="M315.12,281.65h2.81a3.23,3.23,0,1,1,0,6.44h-2.81Zm2.76,5.43a2.21,2.21,0,1,0,0-4.42h-1.57v4.42Z" style="fill:#263238"></path><path d="M331.44,336.27H191.63a5.91,5.91,0,0,1-5.9-5.9V304a5.91,5.91,0,0,1,5.9-5.9H331.44a5.91,5.91,0,0,1,5.9,5.9v26.38A5.91,5.91,0,0,1,331.44,336.27ZM191.63,299.09a4.91,4.91,0,0,0-4.9,4.9v26.38a4.91,4.91,0,0,0,4.9,4.9H331.44a4.91,4.91,0,0,0,4.9-4.9V304a4.91,4.91,0,0,0-4.9-4.9Z" style="fill:#e0e0e0"></path><rect x="200.38" y="310.18" width="22.96" height="17.98" style="fill:#8D88E5"></rect><path d="M237.09,321l-1.47-2.07L234.16,321H233l2-2.78-1.91-2.66h1.14l1.39,1.93,1.37-1.93h1.1l-1.91,2.63,2,2.81Z" style="fill:#263238"></path><path d="M242.36,321l-1.48-2.07L239.42,321h-1.15l2-2.78-1.91-2.66h1.14l1.39,1.93,1.37-1.93h1.1l-1.9,2.63,2,2.81Z" style="fill:#263238"></path><path d="M247.62,321l-1.48-2.07L244.68,321h-1.15l2-2.78-1.91-2.66h1.14l1.39,1.93,1.38-1.93h1.09l-1.9,2.63,2,2.81Z" style="fill:#263238"></path><path d="M255.14,321l-1.48-2.07L252.2,321h-1.14l2-2.78-1.91-2.66h1.15l1.39,1.93,1.37-1.93h1.1l-1.91,2.63,2.05,2.81Z" style="fill:#263238"></path><path d="M260.4,321l-1.47-2.07L257.47,321h-1.15l2-2.78-1.91-2.66h1.14l1.39,1.93,1.37-1.93h1.1l-1.9,2.63,2,2.81Z" style="fill:#263238"></path><path d="M265.67,321l-1.48-2.07L262.73,321h-1.15l2-2.78-1.91-2.66h1.14l1.39,1.93,1.38-1.93h1.09l-1.9,2.63,2,2.81Z" style="fill:#263238"></path><path d="M273.19,321l-1.48-2.07L270.25,321H269.1l2-2.78-1.91-2.66h1.14l1.39,1.93,1.38-1.93h1.09l-1.9,2.63,2,2.81Z" style="fill:#263238"></path><path d="M278.45,321,277,318.93,275.52,321h-1.15l2-2.78-1.91-2.66h1.15l1.39,1.93,1.37-1.93h1.1l-1.91,2.63,2.05,2.81Z" style="fill:#263238"></path><path d="M283.71,321l-1.47-2.07L280.78,321h-1.15l2-2.78-1.91-2.66h1.14l1.39,1.93,1.37-1.93h1.1l-1.9,2.63,2,2.81Z" style="fill:#263238"></path><path d="M289.3,315.56V321h-1v-4.59h-1.15v-.85Z" style="fill:#263238"></path><path d="M294.32,320.14V321h-4v-.68l2.16-2.05c.53-.5.62-.82.62-1.13,0-.49-.34-.78-1-.78a1.52,1.52,0,0,0-1.27.57l-.71-.55a2.53,2.53,0,0,1,2.07-.9c1.18,0,1.94.6,1.94,1.56a2.2,2.2,0,0,1-.9,1.72l-1.46,1.38Z" style="fill:#263238"></path><path d="M298.76,319.37c0,.91-.69,1.71-2.15,1.71a3.49,3.49,0,0,1-2.05-.63l.44-.79a2.52,2.52,0,0,0,1.59.54c.72,0,1.15-.32,1.15-.83s-.36-.8-1.18-.8h-.5v-.69l1.24-1.47h-2.47v-.85h3.7v.68l-1.32,1.57A1.55,1.55,0,0,1,298.76,319.37Z" style="fill:#263238"></path><path d="M304.26,319.76h-1V321h-1v-1.24h-3v-.7l2.68-3.5h1.08l-2.53,3.35h1.78v-1.1h.95v1.1h1Z" style="fill:#263238"></path><path d="M323.2,320.34h0a.5.5,0,0,1-.37-.17l-3.42-3.78a.5.5,0,1,1,.74-.67l3.05,3.37,3.06-3.37a.5.5,0,0,1,.74.67l-3.43,3.78A.47.47,0,0,1,323.2,320.34Z" style="fill:#e0e0e0"></path><path d="M200.73,383.21a2.8,2.8,0,0,1,3-2.83,2.77,2.77,0,0,1,2.17.92l-.66.62a1.94,1.94,0,0,0-1.47-.65,1.94,1.94,0,1,0,0,3.87,1.9,1.9,0,0,0,1.47-.65l.66.63a3,3,0,0,1-5.12-1.91Z" style="fill:#e0e0e0"></path><path d="M210.29,384.68h-2.75L207,386h-1.05l2.48-5.5h1l2.49,5.5h-1.07Zm-.34-.8-1-2.4-1,2.4Z" style="fill:#e0e0e0"></path><path d="M217.5,380.46V386h-.85l-3-3.73V386h-1v-5.5h.84l3,3.72v-3.72Z" style="fill:#e0e0e0"></path><path d="M218.58,383.21a3,3,0,0,1,5.13-1.91l-.66.62a2,2,0,0,0-1.47-.65,1.94,1.94,0,1,0,0,3.87,1.93,1.93,0,0,0,1.47-.65l.66.63a2.85,2.85,0,0,1-2.19.92A2.81,2.81,0,0,1,218.58,383.21Z" style="fill:#e0e0e0"></path><path d="M228.82,385.1V386h-4.13v-5.5h4v.85h-3v1.43h2.66v.84h-2.66v1.52Z" style="fill:#e0e0e0"></path><path d="M230,380.46h1v4.63h2.87V386H230Z" style="fill:#e0e0e0"></path><rect x="255.41" y="367.2" width="78.38" height="33.07" rx="7.09" style="fill:#8D88E5"></rect><path d="M278.73,380.91h-2V380h5.08v.94h-2v5h-1.12Z" style="fill:#fff"></path><path d="M282.15,383a3.23,3.23,0,1,1,3.23,3.08A3.07,3.07,0,0,1,282.15,383Zm5.34,0a2.11,2.11,0,1,0-2.11,2.11A2,2,0,0,0,287.49,383Z" style="fill:#fff"></path><path d="M294.8,382.1c0,1.32-1,2.13-2.55,2.13H290.9V386h-1.11v-6h2.46C293.83,380,294.8,380.77,294.8,382.1Zm-1.12,0c0-.76-.5-1.19-1.48-1.19h-1.3v2.38h1.3C293.18,383.29,293.68,382.85,293.68,382.1Z" style="fill:#fff"></path><path d="M298.31,383.35V380h1.11v3.33c0,1.24.56,1.77,1.53,1.77s1.51-.53,1.51-1.77V380h1.1v3.38a2.63,2.63,0,1,1-5.25,0Z" style="fill:#fff"></path><path d="M310.13,382.1c0,1.32-1,2.13-2.55,2.13h-1.36V386h-1.11v-6h2.47C309.15,380,310.13,380.77,310.13,382.1Zm-1.12,0c0-.76-.51-1.19-1.48-1.19h-1.31v2.38h1.31C308.5,383.29,309,382.85,309,382.1Z" style="fill:#fff"></path><path d="M344.29,355.55c0,.15-37.77.26-84.35.26s-84.37-.11-84.37-.26,37.77-.26,84.37-.26S344.29,355.41,344.29,355.55Z" style="fill:#e0e0e0"></path></g></svg>
